<svg xmlns="http://www.w3.org/2000/svg" xmlns:xlink="http://www.w3.org/1999/xlink" width="138" height="41" viewBox="0 0 138 41">
  <defs>
    <clipPath id="clip-logo_with_name">
      <rect width="138" height="41"/>
    </clipPath>
  </defs>
  <g id="logo_with_name" clip-path="url(#clip-logo_with_name)">
    <rect width="138" height="41" fill="#0B2659" fill-opacity="0.4"/>
    <g id="Group_861" data-name="Group 861" transform="translate(-118 -26.124)">
      <rect id="Rectangle_624" data-name="Rectangle 624" width="89" height="25" rx="3" transform="translate(164 34.302)" fill="rgba(104,189,255,0.61)"/>
      <g id="Group_852" data-name="Group 852" transform="translate(-88.1 -67.673)">
        <path id="Path_2133" data-name="Path 2133" d="M290.58,96.822a10.389,10.389,0,0,0-7.724,10.384,10.392,10.392,0,0,1,7.915-8.587C292.15,98.319,291.725,96.57,290.58,96.822Z" transform="translate(-54.037)" fill="#FFFF" fill-rule="evenodd"/>
        <path id="Path_2134" data-name="Path 2134" d="M245.649,96.822c-1.145-.253-1.569,1.5-.19,1.8a10.392,10.392,0,0,1,7.914,8.587,10.39,10.39,0,0,0-7.725-10.384Z" transform="translate(-25.621)" fill="#FFFF" fill-rule="evenodd"/>
        <path id="Path_2135" data-name="Path 2135" d="M230.183,156.245,217.845,153.1V163.75c0,.352.215,1.111.553,1.288l12.338,3.141V157.533C230.736,157.181,230.522,156.422,230.183,156.245Z" transform="translate(-5.753 -41.822)" fill="#f1c40f" fill-rule="evenodd"/>
        <path id="Path_2136" data-name="Path 2136" d="M241.731,131.724l-8.5-4.09v3.316l9.442,2.424A2.365,2.365,0,0,0,241.731,131.724Z" transform="translate(-17.183 -22.905)" fill="#37dbd0" fill-rule="evenodd"/>
        <path id="Path_2137" data-name="Path 2137" d="M233.166,119.008l-12.627-6.076V119.2l1.992.507v-3.6l9.771,4.7a2.366,2.366,0,0,1,.944,1.65,3.783,3.783,0,0,1,2,2.254v-2.14A4.251,4.251,0,0,0,233.166,119.008Z" transform="translate(-7.754 -11.984)" fill="#FFFF" fill-rule="evenodd"/>
        <path id="Path_2138" data-name="Path 2138" d="M224.451,141.564,210.1,137.91v13.209a3.176,3.176,0,0,0,2.649,3.37l12.094,3.08,2.133,4.369V144.9A3.175,3.175,0,0,0,224.451,141.564Zm.532,13.985-12.014-3.058a1.248,1.248,0,0,1-.877-1.371V140.472l12.081,3.076a1.287,1.287,0,0,1,.811,1.353Z" transform="translate(0 -30.537)" fill="#FFFF" fill-rule="evenodd"/>
        <path id="Path_2139" data-name="Path 2139" d="M224.309,162.014l9.565,2.436v-2.056l-9.565-2.435Z" transform="translate(-10.554 -46.915)" fill="#FFFF" fill-rule="evenodd"/>
        <path id="Path_2140" data-name="Path 2140" d="M224.309,177.358l9.565,2.435v-2.055l-9.565-2.435Z" transform="translate(-10.554 -58.312)" fill="#FFFF" fill-rule="evenodd"/>
        <path id="Path_2141" data-name="Path 2141" d="M293.64,157.533V168.18l12.338-3.141c.339-.177.554-.937.554-1.288V153.1l-12.338,3.142C293.854,156.422,293.64,157.181,293.64,157.533Z" transform="translate(-62.051 -41.822)" fill="#2ecc71" fill-rule="evenodd"/>
        <path id="Path_2142" data-name="Path 2142" d="M291.658,133.374l9.443-2.424v-3.316l-8.5,4.09A2.367,2.367,0,0,0,291.658,133.374Z" transform="translate(-60.579 -22.905)" fill="#39d5ff" fill-rule="evenodd"/>
        <path id="Path_2143" data-name="Path 2143" d="M283.892,122.567v2.14a3.788,3.788,0,0,1,2-2.254,2.367,2.367,0,0,1,.945-1.65l9.772-4.7v3.6l1.992-.507v-6.264l-12.627,6.076A4.25,4.25,0,0,0,283.892,122.567Z" transform="translate(-54.811 -11.984)" fill="#FFFF" fill-rule="evenodd"/>
        <path id="Path_2144" data-name="Path 2144" d="M285.9,144.9v17.037l2.132-4.369,12.095-3.08a3.176,3.176,0,0,0,2.648-3.37V137.91l-14.351,3.654A3.175,3.175,0,0,0,285.9,144.9Zm14.883-4.429v10.647a1.249,1.249,0,0,1-.876,1.371l-12.015,3.058V144.9a1.287,1.287,0,0,1,.81-1.353Z" transform="translate(-56.299 -30.537)" fill="#FFFF" fill-rule="evenodd"/>
        <path id="Path_2145" data-name="Path 2145" d="M300.1,164.45l9.566-2.436v-2.055l-9.566,2.435Z" transform="translate(-66.852 -46.915)" fill="#FFFF" fill-rule="evenodd"/>
        <path id="Path_2146" data-name="Path 2146" d="M300.1,179.793l9.566-2.435V175.3l-9.566,2.435Z" transform="translate(-66.852 -58.312)" fill="#FFFF" fill-rule="evenodd"/>
      </g>
      <text id="My_Biz_Book" data-name="My Biz Book" transform="translate(168 52.302)" fill="#fff" font-size="14" font-family="CoolveticaRg-Regular, Coolvetica" letter-spacing="0.04em"><tspan x="0" y="0">My Biz Book</tspan></text>
    </g>
  </g>
</svg>
